<?xml version="1.0" encoding="UTF-8"?>
<svg xmlns="http://www.w3.org/2000/svg" xmlns:xlink="http://www.w3.org/1999/xlink" width="35px" height="35px" viewBox="0 0 35 32" version="1.1">
<defs>
<filter id="alpha" filterUnits="objectBoundingBox" x="0%" y="0%" width="100%" height="100%">
  <feColorMatrix type="matrix" in="SourceGraphic" values="0 0 0 0 1 0 0 0 0 1 0 0 0 0 1 0 0 0 1 0"/>
</filter>
<mask id="mask0">
  <g filter="url(#alpha)">
<rect x="0" y="0" width="35" height="32" style="fill:rgb(0%,0%,0%);fill-opacity:0.027451;stroke:none;"/>
  </g>
</mask>
<clipPath id="clip1">
  <rect x="0" y="0" width="35" height="32"/>
</clipPath>
<g id="surface5" clip-path="url(#clip1)">
<path style=" stroke:none;fill-rule:evenodd;fill:rgb(85.09804%,85.09804%,86.666667%);fill-opacity:1;" d="M 15.855469 28.613281 C 15.785156 28.683594 15.785156 28.683594 15.855469 28.613281 Z M 15.855469 28.613281 "/>
</g>
<mask id="mask1">
  <g filter="url(#alpha)">
<rect x="0" y="0" width="35" height="32" style="fill:rgb(0%,0%,0%);fill-opacity:0.0196078;stroke:none;"/>
  </g>
</mask>
<clipPath id="clip2">
  <rect x="0" y="0" width="35" height="32"/>
</clipPath>
<g id="surface8" clip-path="url(#clip2)">
<path style=" stroke:none;fill-rule:evenodd;fill:rgb(85.882354%,85.882354%,87.450981%);fill-opacity:1;" d="M 18.824219 28.820312 C 18.753906 28.683594 18.753906 28.683594 18.824219 28.820312 Z M 18.824219 28.820312 "/>
</g>
<mask id="mask2">
  <g filter="url(#alpha)">
<rect x="0" y="0" width="35" height="32" style="fill:rgb(0%,0%,0%);fill-opacity:0.839216;stroke:none;"/>
  </g>
</mask>
<clipPath id="clip3">
  <rect x="0" y="0" width="35" height="32"/>
</clipPath>
<g id="surface11" clip-path="url(#clip3)">
<path style=" stroke:none;fill-rule:evenodd;fill:rgb(83.137256%,83.529413%,85.882354%);fill-opacity:1;" d="M 18.402344 28.714844 C 18.4375 28.855469 18.472656 28.855469 18.507812 28.714844 C 18.578125 28.777344 18.648438 28.847656 18.71875 28.925781 C 18.785156 28.914062 18.820312 28.878906 18.824219 28.820312 C 19.398438 28.878906 20 28.964844 20.628906 29.082031 C 20.769531 29.152344 20.769531 29.21875 20.628906 29.289062 C 18.6875 29.453125 16.742188 29.488281 14.796875 29.394531 C 14.425781 29.363281 14.074219 29.277344 13.734375 29.132812 C 14.246094 29.007812 14.757812 28.902344 15.273438 28.820312 C 15.65625 28.824219 16.027344 28.824219 16.386719 28.820312 C 16.644531 28.980469 16.925781 29.085938 17.234375 29.132812 C 17.636719 29.023438 18.023438 28.882812 18.402344 28.714844 Z M 18.402344 28.714844 "/>
</g>
</defs>
<g id="surface1">
<path style=" stroke:none;fill-rule:evenodd;fill:rgb(98.823529%,98.823529%,98.823529%);fill-opacity:1;" d="M 27.203125 10.789062 C 27.273438 10.824219 27.347656 10.859375 27.417969 10.890625 C 27.425781 10.996094 27.390625 11.082031 27.3125 11.152344 C 24.042969 12.960938 20.789062 14.785156 17.554688 16.625 C 15.8125 15.890625 14.113281 15.074219 12.460938 14.175781 C 12.355469 14.105469 12.25 14.105469 12.144531 14.175781 C 13.808594 15.132812 15.46875 16.089844 17.128906 17.042969 C 17.269531 20.847656 17.269531 24.632812 17.128906 28.402344 C 13.714844 26.5625 10.339844 24.648438 7 22.671875 C 6.929688 18.78125 6.929688 14.886719 7 10.996094 C 10.402344 9.007812 13.832031 7.0625 17.289062 5.160156 C 20.609375 7.015625 23.914062 8.890625 27.203125 10.789062 Z M 27.203125 10.789062 "/>
<path style=" stroke:none;fill-rule:evenodd;fill:rgb(5.490196%,5.490196%,5.490196%);fill-opacity:1;" d="M 21.371094 9.953125 C 22.019531 9.839844 22.566406 10.015625 23.015625 10.476562 C 23.03125 10.984375 22.765625 11.28125 22.21875 11.363281 C 21.476562 11.585938 20.945312 11.359375 20.628906 10.683594 C 20.773438 10.335938 21.019531 10.089844 21.371094 9.953125 Z M 21.371094 9.953125 "/>
<path style=" stroke:none;fill-rule:evenodd;fill:rgb(5.098039%,5.098039%,5.098039%);fill-opacity:1;" d="M 16.492188 10.164062 C 16.953125 10.144531 17.414062 10.164062 17.871094 10.214844 C 18.394531 10.40625 18.515625 10.738281 18.242188 11.207031 C 17.5625 11.59375 16.871094 11.609375 16.175781 11.257812 C 15.890625 10.792969 15.996094 10.425781 16.492188 10.164062 Z M 16.492188 10.164062 "/>
<path style=" stroke:none;fill-rule:evenodd;fill:rgb(4.705882%,4.705882%,4.705882%);fill-opacity:1;" d="M 12.144531 10.265625 C 12.757812 10.183594 13.304688 10.324219 13.789062 10.683594 C 13.851562 11.246094 13.589844 11.578125 12.992188 11.675781 C 12.261719 11.84375 11.769531 11.601562 11.507812 10.945312 C 11.523438 10.859375 11.542969 10.769531 11.5625 10.683594 C 11.753906 10.53125 11.945312 10.390625 12.144531 10.265625 Z M 12.144531 10.265625 "/>
<path style=" stroke:none;fill-rule:evenodd;fill:rgb(81.176472%,81.960785%,85.490197%);fill-opacity:1;" d="M 27.417969 10.890625 C 27.558594 14.835938 27.558594 18.796875 27.417969 22.773438 C 27.285156 22.820312 27.179688 22.890625 27.097656 22.984375 C 23.796875 24.796875 20.507812 26.640625 17.234375 28.507812 C 17.171875 28.496094 17.136719 28.460938 17.128906 28.402344 C 17.269531 24.632812 17.269531 20.847656 17.128906 17.042969 C 15.46875 16.089844 13.808594 15.132812 12.144531 14.175781 C 12.25 14.105469 12.355469 14.105469 12.460938 14.175781 C 14.113281 15.074219 15.8125 15.890625 17.554688 16.625 C 20.789062 14.785156 24.042969 12.960938 27.3125 11.152344 C 27.390625 11.082031 27.425781 10.996094 27.417969 10.890625 Z M 27.417969 10.890625 "/>
<path style=" stroke:none;fill-rule:evenodd;fill:rgb(5.098039%,5.098039%,5.098039%);fill-opacity:1;" d="M 16.917969 12.769531 C 17.410156 12.730469 17.871094 12.832031 18.296875 13.082031 C 18.621094 13.605469 18.480469 13.96875 17.871094 14.175781 C 17.253906 14.324219 16.707031 14.199219 16.226562 13.8125 C 16.15625 13.601562 16.15625 13.394531 16.226562 13.1875 C 16.449219 13.015625 16.679688 12.878906 16.917969 12.769531 Z M 16.917969 12.769531 "/>
<path style=" stroke:none;fill-rule:evenodd;fill:rgb(18.039216%,16.862746%,18.039216%);fill-opacity:1;" d="M 28.160156 10.789062 C 28.28125 14.800781 28.300781 18.832031 28.210938 22.878906 C 27.949219 23.296875 27.578125 23.574219 27.097656 23.714844 C 27.214844 23.429688 27.214844 23.183594 27.097656 22.984375 C 27.179688 22.890625 27.285156 22.820312 27.417969 22.773438 C 27.558594 18.796875 27.558594 14.835938 27.417969 10.890625 C 27.347656 10.859375 27.273438 10.824219 27.203125 10.789062 C 27.257812 10.6875 27.308594 10.582031 27.363281 10.476562 C 27.539062 10.648438 27.71875 10.824219 27.894531 10.996094 C 27.96875 10.90625 28.058594 10.835938 28.160156 10.789062 Z M 28.160156 10.789062 "/>
<path style=" stroke:none;fill-rule:evenodd;fill:rgb(5.490196%,5.490196%,5.490196%);fill-opacity:1;" d="M 8.855469 15.269531 C 9.570312 15.222656 10.046875 15.539062 10.289062 16.207031 C 10.371094 16.582031 10.355469 16.949219 10.234375 17.304688 C 9.699219 17.464844 9.292969 17.308594 9.015625 16.832031 C 8.632812 16.332031 8.578125 15.808594 8.855469 15.269531 Z M 8.855469 15.269531 "/>
<path style=" stroke:none;fill-rule:evenodd;fill:rgb(6.666667%,6.666667%,7.058824%);fill-opacity:1;" d="M 24.976562 15.269531 C 25.246094 15.230469 25.476562 15.296875 25.667969 15.480469 C 25.8125 16.164062 25.617188 16.738281 25.082031 17.199219 C 24.761719 17.421875 24.460938 17.40625 24.183594 17.148438 C 24.011719 16.335938 24.277344 15.707031 24.976562 15.269531 Z M 24.976562 15.269531 "/>
<path style=" stroke:none;fill-rule:evenodd;fill:rgb(4.313726%,4.313726%,4.313726%);fill-opacity:1;" d="M 13.203125 17.667969 C 14.101562 17.769531 14.597656 18.273438 14.6875 19.179688 C 14.726562 19.734375 14.480469 19.941406 13.945312 19.804688 C 13.113281 19.277344 12.867188 18.5625 13.203125 17.667969 Z M 13.203125 17.667969 "/>
<path style=" stroke:none;fill-rule:evenodd;fill:rgb(3.529412%,3.529412%,4.313726%);fill-opacity:1;" d="M 22.855469 19.128906 C 23.097656 19.101562 23.328125 19.136719 23.546875 19.230469 C 23.710938 19.957031 23.519531 20.5625 22.960938 21.054688 C 22.640625 21.28125 22.339844 21.261719 22.0625 21.003906 C 21.890625 20.191406 22.15625 19.566406 22.855469 19.128906 Z M 22.855469 19.128906 "/>
<path style=" stroke:none;fill-rule:evenodd;fill:rgb(4.705882%,4.705882%,4.705882%);fill-opacity:1;" d="M 8.960938 20.378906 C 9.808594 20.53125 10.265625 21.035156 10.339844 21.890625 C 10.382812 22.4375 10.136719 22.644531 9.597656 22.515625 C 9.027344 22.171875 8.707031 21.667969 8.644531 21.003906 C 8.65625 20.746094 8.761719 20.539062 8.960938 20.378906 Z M 8.960938 20.378906 "/>
<path style=" stroke:none;fill-rule:evenodd;fill:rgb(4.313726%,4.313726%,4.313726%);fill-opacity:1;" d="M 13.203125 22.878906 C 14.082031 22.976562 14.578125 23.464844 14.6875 24.339844 C 14.664062 24.9375 14.382812 25.128906 13.839844 24.910156 C 13.078125 24.386719 12.867188 23.707031 13.203125 22.878906 Z M 13.203125 22.878906 "/>
<path style=" stroke:none;fill-rule:evenodd;fill:rgb(3.137255%,3.529412%,3.921569%);fill-opacity:1;" d="M 20.734375 22.773438 C 21.003906 22.734375 21.234375 22.804688 21.425781 22.984375 C 21.605469 23.953125 21.234375 24.613281 20.3125 24.964844 C 20.148438 24.960938 20.023438 24.890625 19.9375 24.753906 C 19.867188 24.441406 19.867188 24.128906 19.9375 23.816406 C 20.144531 23.425781 20.410156 23.078125 20.734375 22.773438 Z M 20.734375 22.773438 "/>
<path style=" stroke:none;fill-rule:evenodd;fill:rgb(16.470589%,15.686275%,16.078432%);fill-opacity:1;" d="M 28.160156 10.789062 C 28.058594 10.835938 27.96875 10.90625 27.894531 10.996094 C 27.71875 10.824219 27.539062 10.648438 27.363281 10.476562 C 27.308594 10.582031 27.257812 10.6875 27.203125 10.789062 C 23.914062 8.890625 20.609375 7.015625 17.289062 5.160156 C 13.832031 7.0625 10.402344 9.007812 7 10.996094 C 6.929688 14.886719 6.929688 18.78125 7 22.671875 C 10.339844 24.648438 13.714844 26.5625 17.128906 28.402344 C 17.136719 28.460938 17.171875 28.496094 17.234375 28.507812 C 20.507812 26.640625 23.796875 24.796875 27.097656 22.984375 C 27.214844 23.183594 27.214844 23.429688 27.097656 23.714844 C 24.21875 25.355469 21.355469 27.023438 18.507812 28.714844 C 18.472656 28.714844 18.4375 28.714844 18.402344 28.714844 C 18.023438 28.882812 17.636719 29.023438 17.234375 29.132812 C 16.925781 29.085938 16.644531 28.980469 16.386719 28.820312 C 16.222656 28.722656 16.046875 28.652344 15.855469 28.613281 C 12.742188 26.796875 9.613281 24.988281 6.46875 23.191406 C 6.378906 23.027344 6.308594 22.851562 6.257812 22.671875 C 6.238281 20.707031 6.222656 18.746094 6.203125 16.78125 C 6.1875 14.738281 6.242188 12.707031 6.363281 10.683594 C 6.972656 10.183594 7.625 9.75 8.324219 9.382812 C 11.296875 7.6875 14.28125 6.039062 17.289062 4.429688 C 20.8125 6.378906 24.328125 8.339844 27.839844 10.320312 C 28.015625 10.4375 28.121094 10.59375 28.160156 10.789062 Z M 28.160156 10.789062 "/>
<path style=" stroke:none;fill-rule:evenodd;fill:rgb(5.490196%,5.490196%,5.490196%);fill-opacity:1;" d="M 16.703125 7.347656 C 17.289062 7.257812 17.800781 7.398438 18.242188 7.765625 C 18.410156 8.296875 18.214844 8.625 17.660156 8.753906 C 17.222656 8.84375 16.796875 8.808594 16.386719 8.652344 C 16.046875 8.488281 15.921875 8.226562 16.015625 7.871094 C 16.222656 7.65625 16.453125 7.480469 16.703125 7.347656 Z M 16.703125 7.347656 "/>
<use xlink:href="#surface5" mask="url(#mask0)"/>
<use xlink:href="#surface8" mask="url(#mask1)"/>
<use xlink:href="#surface11" mask="url(#mask2)"/>
</g>
</svg>
