<?xml version="1.0" encoding="UTF-8"?>
<!DOCTYPE svg PUBLIC "-//W3C//DTD SVG 1.1//EN" "http://www.w3.org/Graphics/SVG/1.1/DTD/svg11.dtd">
<svg xmlns="http://www.w3.org/2000/svg" version="1.1" width="1500px" height="504px" style="shape-rendering:geometricPrecision; text-rendering:geometricPrecision; image-rendering:optimizeQuality; fill-rule:evenodd; clip-rule:evenodd" xmlns:xlink="http://www.w3.org/1999/xlink">
<g><path style="opacity:0.986" fill="#0d5a94" d="M 1307.5,70.5 C 1370.11,71.9841 1414.61,100.984 1441,157.5C 1456.89,198.127 1456.22,238.461 1439,278.5C 1412,263.721 1383.33,253.721 1353,248.5C 1352.5,223.836 1352.33,199.169 1352.5,174.5C 1325.83,174.5 1299.17,174.5 1272.5,174.5C 1272.83,199.176 1272.5,223.842 1271.5,248.5C 1241.34,253.831 1212.84,263.831 1186,278.5C 1164.05,225.428 1169.05,175.095 1201,127.5C 1228.13,92.8502 1263.63,73.8502 1307.5,70.5 Z"/></g>
<g><path style="opacity:0.973" fill="#0d5a94" d="M 55.5,249.5 C 70.5148,249.167 85.5148,249.501 100.5,250.5C 114.667,287.5 128.833,324.5 143,361.5C 157.069,324.461 171.235,287.461 185.5,250.5C 197.815,249.501 210.149,249.168 222.5,249.5C 202.305,304.247 181.805,358.914 161,413.5C 152.094,427.697 139.427,432.697 123,428.5C 100.395,368.849 77.8949,309.182 55.5,249.5 Z"/></g>
<g><path style="opacity:0.976" fill="#0d5a94" d="M 651.5,249.5 C 676.502,249.333 701.502,249.5 726.5,250C 755.921,252.754 771.921,268.754 774.5,298C 774.134,313.344 767.468,325.011 754.5,333C 773.834,340.637 783.168,354.97 782.5,376C 780.799,407.039 764.465,424.706 733.5,429C 706.169,429.5 678.835,429.667 651.5,429.5C 651.5,369.5 651.5,309.5 651.5,249.5 Z M 693.5,283.5 C 702.506,283.334 711.506,283.5 720.5,284C 730.625,285.792 736.292,291.792 737.5,302C 736.153,310.007 731.819,315.673 724.5,319C 714.216,320.338 703.883,320.838 693.5,320.5C 693.5,308.167 693.5,295.833 693.5,283.5 Z M 692.5,354.5 C 706.24,354.054 719.907,354.554 733.5,356C 748.191,366.822 749.191,378.822 736.5,392C 734.5,393 732.5,394 730.5,395C 717.838,395.5 705.171,395.667 692.5,395.5C 692.5,381.833 692.5,368.167 692.5,354.5 Z"/></g>
<g><path style="opacity:0.979" fill="#0d5a94" d="M 1066.5,249.5 C 1085.42,248.04 1097.59,256.373 1103,274.5C 1103.33,298.833 1103.67,323.167 1104,347.5C 1116.17,333.333 1128.33,319.167 1140.5,305C 1155.84,304.167 1171.18,304.334 1186.5,305.5C 1169.65,323.851 1152.98,342.351 1136.5,361C 1153.29,383.411 1169.96,405.911 1186.5,428.5C 1170.51,429.666 1154.51,429.833 1138.5,429C 1127,411.5 1115.5,394 1104,376.5C 1103.5,394.164 1103.33,411.83 1103.5,429.5C 1091.17,429.5 1078.83,429.5 1066.5,429.5C 1066.5,369.5 1066.5,309.5 1066.5,249.5 Z"/></g>
<g><path style="opacity:0.984" fill="#d71d4a" d="M 1298.5,264.5 C 1334.74,263.033 1369.74,268.867 1403.5,282C 1412.64,285.736 1421.31,290.236 1429.5,295.5C 1397.9,342.633 1353.56,364.133 1296.5,360C 1252.98,353.598 1219.31,332.098 1195.5,295.5C 1209.73,286.467 1225.07,279.634 1241.5,275C 1260.28,269.538 1279.28,266.038 1298.5,264.5 Z"/></g>
<g><path style="opacity:0.977" fill="#0d5a94" d="M 401.5,274.5 C 413.5,274.5 425.5,274.5 437.5,274.5C 437.5,284.5 437.5,294.5 437.5,304.5C 444.167,304.5 450.833,304.5 457.5,304.5C 457.5,314.5 457.5,324.5 457.5,334.5C 450.833,334.5 444.167,334.5 437.5,334.5C 437.073,351.548 437.573,368.548 439,385.5C 442.745,393.126 448.911,396.793 457.5,396.5C 457.5,407.5 457.5,418.5 457.5,429.5C 442.961,431.752 429.628,428.918 417.5,421C 409.073,413.315 403.906,403.815 402,392.5C 401.5,373.17 401.333,353.836 401.5,334.5C 395.833,334.5 390.167,334.5 384.5,334.5C 384.5,324.5 384.5,314.5 384.5,304.5C 390.167,304.5 395.833,304.5 401.5,304.5C 401.5,294.5 401.5,284.5 401.5,274.5 Z"/></g>
<g><path style="opacity:0.966" fill="#0d5a94" d="M 314.5,300.5 C 347.709,302.545 368.875,319.545 378,351.5C 379.728,360.82 379.895,370.154 378.5,379.5C 348.5,379.5 318.5,379.5 288.5,379.5C 292.833,399.007 304.833,407.174 324.5,404C 331.521,401.477 336.854,396.977 340.5,390.5C 352.148,389.501 363.814,389.168 375.5,389.5C 363.805,420.862 341.138,435.362 307.5,433C 275.687,425.849 257.854,406.016 254,373.5C 252.499,341.652 265.999,318.818 294.5,305C 301.145,302.774 307.811,301.274 314.5,300.5 Z M 310.5,330.5 C 323.04,328.949 332.873,333.282 340,343.5C 341.868,346.605 343.035,349.938 343.5,353.5C 325.5,353.5 307.5,353.5 289.5,353.5C 292.026,341.645 299.026,333.978 310.5,330.5 Z"/></g>
<g><path style="opacity:0.981" fill="#0d5a94" d="M 588.5,300.5 C 612.297,300.979 627.463,312.645 634,335.5C 634.5,366.832 634.667,398.165 634.5,429.5C 622.5,429.5 610.5,429.5 598.5,429.5C 598.667,403.498 598.5,377.498 598,351.5C 592.53,335.508 582.363,331.341 567.5,339C 564.193,341.778 562.026,345.278 561,349.5C 560.5,376.165 560.333,402.831 560.5,429.5C 548.167,429.5 535.833,429.5 523.5,429.5C 523.5,388.167 523.5,346.833 523.5,305.5C 534.833,305.5 546.167,305.5 557.5,305.5C 557.334,309.514 557.501,313.514 558,317.5C 565.945,307.779 576.111,302.113 588.5,300.5 Z"/></g>
<g><path style="opacity:0.978" fill="#0d5a94" d="M 844.5,300.5 C 856.528,299.523 867.528,302.356 877.5,309C 880.04,311.205 882.207,313.705 884,316.5C 884.499,312.514 884.666,308.514 884.5,304.5C 896.5,304.5 908.5,304.5 920.5,304.5C 920.5,346.167 920.5,387.833 920.5,429.5C 908.5,429.5 896.5,429.5 884.5,429.5C 884.665,425.818 884.499,422.152 884,418.5C 878.36,426.744 870.526,431.577 860.5,433C 818.838,435.683 795.672,416.183 791,374.5C 788.14,347.074 797.64,325.241 819.5,309C 827.45,304.629 835.783,301.795 844.5,300.5 Z M 849.5,336.5 C 870.599,335.762 882.265,345.928 884.5,367C 882.483,390.036 870.15,400.036 847.5,397C 831.568,388.967 825.401,376.134 829,358.5C 832.259,347.744 839.092,340.411 849.5,336.5 Z"/></g>
<g><path style="opacity:0.975" fill="#0d5a94" d="M 1002.5,300.5 C 1028.63,301.46 1044.13,314.793 1049,340.5C 1049.5,370.165 1049.67,399.831 1049.5,429.5C 1037.17,429.5 1024.83,429.5 1012.5,429.5C 1012.67,403.165 1012.5,376.831 1012,350.5C 1009.79,340.962 1003.79,335.629 994,334.5C 983.68,335.156 977.347,340.49 975,350.5C 974.5,376.831 974.333,403.165 974.5,429.5C 962.167,429.5 949.833,429.5 937.5,429.5C 937.5,388.167 937.5,346.833 937.5,305.5C 948.833,305.5 960.167,305.5 971.5,305.5C 971.334,309.514 971.501,313.514 972,317.5C 980.017,307.747 990.184,302.08 1002.5,300.5 Z"/></g>
<g><path style="opacity:0.979" fill="#0d5a94" d="M 233.5,304.5 C 236.167,304.5 238.833,304.5 241.5,304.5C 241.5,346.167 241.5,387.833 241.5,429.5C 229.5,429.5 217.5,429.5 205.5,429.5C 205.333,396.165 205.5,362.832 206,329.5C 210.136,315.533 219.303,307.199 233.5,304.5 Z"/></g>
<g><path style="opacity:0.981" fill="#0d5a94" d="M 499.5,304.5 C 501.833,304.5 504.167,304.5 506.5,304.5C 506.5,346.167 506.5,387.833 506.5,429.5C 494.5,429.5 482.5,429.5 470.5,429.5C 470.333,396.832 470.5,364.165 471,331.5C 474.914,316.415 484.414,307.415 499.5,304.5 Z"/></g>
</svg>
